<svg version="1.1" preserveAspectRatio="none" xmlns="http://www.w3.org/2000/svg" width="500" height="500" viewBox="0 0 500 500"><rect width="100%" height="100%" fill="#FFFFFF" fill-opacity="1"/><svg viewBox="-22.0393 156.4036 569.7369 213.2" width="333" height="124.61120211803026" x="83.5px" y="187.6944px" xmlns="http://www.w3.org/2000/svg" xmlns:xlink="http://www.w3.org/1999/xlink" preserveAspectRatio="none"><defs></defs><style>.icon1 {fill:#0C0C0C;fill-opacity:1;}.icon2 {fill:#DFDFDF;fill-opacity:1;}.icon3 {fill:#929292;fill-opacity:1;}.icon3-str {stroke:#929292;stroke-opacity:1;}</style><g opacity="1" transform="rotate(0 -22.0393 350.4036)">
<svg width="569.7369" height="19.2" x="-22.0393" y="350.4036" version="1.1" preserveAspectRatio="none" viewBox="3.8672 -30.5078 1104.6485 37.2265">
  <g transform="matrix(1 0 0 1 0 0)" class="icon3"><path id="id-6izo4zJp33" d="M7.66 0L3.87 0L3.87-29.80L8.67-29.80L14.77-14.53Q15.39-12.89 16.37-10.10Q17.34-7.30 17.50-6.91L17.50-6.91L17.66-6.91Q17.85-7.50 20.51-14.53L20.51-14.53L26.52-29.80L31.41-29.80L31.41 0L27.62 0L27.62-15.70Q27.62-19.45 28.05-24.77L28.05-24.77L27.89-24.77L26.17-20L19.18-2.03L16.09-2.03L9.10-20L7.30-24.80L7.15-24.80Q7.66-18.71 7.66-15.70L7.66-15.70L7.66 0Z M55.59-12.19L45.08-29.80L49.53-29.80L54.49-20.82Q56.09-17.85 57.38-15.43L57.38-15.43L57.50-15.43Q58.01-16.37 59.00-18.22Q60-20.08 60.43-20.82L60.43-20.82L65.35-29.80L69.80-29.80L59.38-12.19L59.38 0L55.59 0L55.59-12.19Z M100.86-5.86L100.86-5.86L104.30-7.07Q105.47-5 107.52-3.79Q109.57-2.58 112.27-2.58L112.27-2.58Q115.16-2.58 116.95-3.98Q118.75-5.39 118.75-7.77L118.75-7.77Q118.75-9.02 118.22-9.98Q117.70-10.94 116.56-11.64Q115.43-12.34 114.43-12.77Q113.44-13.20 111.76-13.75L111.76-13.75Q107.11-15.27 105.39-16.37L105.39-16.37Q101.88-18.63 101.88-22.58L101.88-22.58Q101.88-26.17 104.67-28.34Q107.46-30.51 112.03-30.51L112.03-30.51Q115.63-30.51 118.24-28.85Q120.86-27.19 122.03-24.65L122.03-24.65L118.79-23.55Q116.41-27.27 111.95-27.27L111.95-27.27Q109.10-27.27 107.44-25.98Q105.78-24.69 105.78-22.58L105.78-22.58Q105.78-21.37 106.37-20.43Q106.95-19.49 108.16-18.81Q109.38-18.13 110.47-17.70Q111.56-17.27 113.36-16.68L113.36-16.68Q113.87-16.52 114.10-16.45L114.10-16.45Q115.98-15.82 117.29-15.21Q118.59-14.61 119.94-13.61Q121.29-12.62 121.97-11.19Q122.66-9.77 122.66-7.89L122.66-7.89Q122.66-3.83 119.79-1.56Q116.91 0.70 112.19 0.70L112.19 0.70Q108.13 0.70 105.21-1.07Q102.30-2.85 100.86-5.86Z M141.52 0L134.61-29.80L138.71-29.80L142.50-10.94Q143.36-5.90 143.63-4.22L143.63-4.22L143.87-4.22Q143.98-4.80 144.47-7.29Q144.96-9.77 145.20-10.94L145.20-10.94L149.57-29.80L153.52-29.80L157.97-10.94Q158.36-9.26 159.30-4.22L159.30-4.22L159.45-4.22Q159.53-4.69 160.63-10.94L160.63-10.94L164.45-29.80L168.55-29.80L161.64 0L157.23 0L152.93-18.63Q152.77-19.34 152.50-20.64Q152.23-21.95 152.01-23.03Q151.80-24.10 151.64-25.08L151.64-25.08L151.48-25.08Q151.37-24.38 150.20-18.63L150.20-18.63L145.90 0L141.52 0Z M202.11 0L182.81 0L182.81-29.80L201.76-29.80L201.76-26.56L186.60-26.56L186.60-16.99L200.27-16.99L200.27-13.83L186.60-13.83L186.60-3.24L202.11-3.24L202.11 0Z M236.68 0L217.38 0L217.38-29.80L236.33-29.80L236.33-26.56L221.17-26.56L221.17-16.99L234.84-16.99L234.84-13.83L221.17-13.83L221.17-3.24L236.68-3.24L236.68 0Z M258.05-26.56L249.14-26.56L249.14-29.80L270.74-29.80L270.74-26.56L261.84-26.56L261.84 0L258.05 0L258.05-26.56Z M288.75 0L284.96 0L284.96-29.80L288.75-29.80L288.75-16.91L302.50-16.91L302.50-29.80L306.29-29.80L306.29 0L302.50 0L302.50-13.75L288.75-13.75L288.75 0Z M343.28 0L323.98 0L323.98-29.80L342.93-29.80L342.93-26.56L327.77-26.56L327.77-16.99L341.45-16.99L341.45-13.83L327.77-13.83L327.77-3.24L343.28-3.24L343.28 0Z M366.13-20.47L362.93-11.21L373.36-11.21L370.20-20.47Q369.96-21.17 369.28-23.24Q368.59-25.31 368.28-26.25L368.28-26.25L368.05-26.25Q367.77-25.39 367.09-23.36Q366.41-21.33 366.13-20.47L366.13-20.47ZM359.02 0L354.92 0L365.94-29.80L370.39-29.80L381.37 0L377.27 0L374.45-8.16L361.88-8.16L359.02 0Z M398.87-26.56L398.87-15.78L406.29-15.78Q409.14-15.78 410.66-17.25Q412.19-18.71 412.19-21.25L412.19-21.25Q412.19-23.63 410.59-25.10Q408.98-26.56 406.05-26.56L406.05-26.56L398.87-26.56ZM398.87 0L395.08 0L395.08-29.80L406.84-29.80Q411.29-29.80 413.69-27.42Q416.09-25.04 416.09-21.52L416.09-21.52Q416.09-18.40 414.59-16.45Q413.09-14.49 411.21-13.95L411.21-13.95Q412.77-13.05 413.48-11.84Q414.18-10.63 414.65-8.36L414.65-8.36Q415.08-6.52 415.33-5.53Q415.59-4.53 416.19-3.03Q416.80-1.52 417.70 0L417.70 0L413.44 0Q411.84-2.85 410.66-8.09L410.66-8.09Q410.16-10.23 409.20-11.39Q408.24-12.54 406.13-12.54L406.13-12.54L398.87-12.54L398.87 0Z M437.15-26.56L428.24-26.56L428.24-29.80L449.84-29.80L449.84-26.56L440.94-26.56L440.94 0L437.15 0L437.15-26.56Z M465.08 6.72L462.07 6.72L465.47-5.12L470.27-5.12L465.08 6.72Z M513.44-26.56L504.53-26.56L504.53-29.80L526.13-29.80L526.13-26.56L517.23-26.56L517.23 0L513.44 0L513.44-26.56Z M537.85-14.88L537.85-14.88Q537.85-21.91 541.27-26.21Q544.69-30.51 550.39-30.51L550.39-30.51Q556.13-30.51 559.51-26.21Q562.89-21.91 562.89-14.84L562.89-14.84Q562.89-7.73 559.47-3.52Q556.05 0.70 550.39 0.70L550.39 0.70Q544.69 0.70 541.27-3.54Q537.85-7.77 537.85-14.88ZM541.76-14.88L541.76-14.88Q541.76-9.22 544.08-5.90Q546.41-2.58 550.39-2.58L550.39-2.58Q554.34-2.58 556.66-5.84Q558.98-9.10 558.98-14.84L558.98-14.84Q558.98-20.51 556.72-23.89Q554.45-27.27 550.39-27.27L550.39-27.27Q546.41-27.27 544.08-23.91Q541.76-20.55 541.76-14.88Z M600.70-12.19L590.20-29.80L594.65-29.80L599.61-20.82Q601.21-17.85 602.50-15.43L602.50-15.43L602.62-15.43Q603.13-16.37 604.12-18.22Q605.12-20.08 605.55-20.82L605.55-20.82L610.47-29.80L614.92-29.80L604.49-12.19L604.49 0L600.70 0L600.70-12.19Z M625.59-14.88L625.59-14.88Q625.59-21.91 629.00-26.21Q632.42-30.51 638.13-30.51L638.13-30.51Q643.87-30.51 647.25-26.21Q650.63-21.91 650.63-14.84L650.63-14.84Q650.63-7.73 647.21-3.52Q643.79 0.70 638.13 0.70L638.13 0.70Q632.42 0.70 629.00-3.54Q625.59-7.77 625.59-14.88ZM629.49-14.88L629.49-14.88Q629.49-9.22 631.82-5.90Q634.14-2.58 638.13-2.58L638.13-2.58Q642.07-2.58 644.39-5.84Q646.72-9.10 646.72-14.84L646.72-14.84Q646.72-20.51 644.45-23.89Q642.19-27.27 638.13-27.27L638.13-27.27Q634.14-27.27 631.82-23.91Q629.49-20.55 629.49-14.88Z M666.25-10.90L666.25-10.90L666.25-29.80L670.08-29.80L670.08-10.98Q670.08-6.72 671.97-4.65Q673.87-2.58 676.95-2.58L676.95-2.58Q680.12-2.58 681.99-4.73Q683.87-6.88 683.87-10.98L683.87-10.98L683.87-29.80L687.70-29.80L687.70-10.90Q687.70-5.39 684.94-2.34Q682.19 0.70 676.95 0.70L676.95 0.70Q671.88 0.70 669.06-2.29Q666.25-5.27 666.25-10.90Z M709.06-26.56L709.06-15.78L716.48-15.78Q719.34-15.78 720.86-17.25Q722.38-18.71 722.38-21.25L722.38-21.25Q722.38-23.63 720.78-25.10Q719.18-26.56 716.25-26.56L716.25-26.56L709.06-26.56ZM709.06 0L705.27 0L705.27-29.80L717.03-29.80Q721.48-29.80 723.89-27.42Q726.29-25.04 726.29-21.52L726.29-21.52Q726.29-18.40 724.79-16.45Q723.28-14.49 721.41-13.95L721.41-13.95Q722.97-13.05 723.67-11.84Q724.38-10.63 724.84-8.36L724.84-8.36Q725.27-6.52 725.53-5.53Q725.78-4.53 726.39-3.03Q726.99-1.52 727.89 0L727.89 0L723.63 0Q722.03-2.85 720.86-8.09L720.86-8.09Q720.35-10.23 719.39-11.39Q718.44-12.54 716.33-12.54L716.33-12.54L709.06-12.54L709.06 0Z M759.53-5.86L759.53-5.86L762.97-7.07Q764.14-5 766.19-3.79Q768.24-2.58 770.94-2.58L770.94-2.58Q773.83-2.58 775.63-3.98Q777.42-5.39 777.42-7.77L777.42-7.77Q777.42-9.02 776.89-9.98Q776.37-10.94 775.23-11.64Q774.10-12.34 773.11-12.77Q772.11-13.20 770.43-13.75L770.43-13.75Q765.78-15.27 764.06-16.37L764.06-16.37Q760.55-18.63 760.55-22.58L760.55-22.58Q760.55-26.17 763.34-28.34Q766.13-30.51 770.70-30.51L770.70-30.51Q774.30-30.51 776.91-28.85Q779.53-27.19 780.70-24.65L780.70-24.65L777.46-23.55Q775.08-27.27 770.63-27.27L770.63-27.27Q767.77-27.27 766.11-25.98Q764.45-24.69 764.45-22.58L764.45-22.58Q764.45-21.37 765.04-20.43Q765.63-19.49 766.84-18.81Q768.05-18.13 769.14-17.70Q770.23-17.27 772.03-16.68L772.03-16.68Q772.54-16.52 772.77-16.45L772.77-16.45Q774.65-15.82 775.96-15.21Q777.27-14.61 778.61-13.61Q779.96-12.62 780.64-11.19Q781.33-9.77 781.33-7.89L781.33-7.89Q781.33-3.83 778.46-1.56Q775.59 0.70 770.86 0.70L770.86 0.70Q766.80 0.70 763.89-1.07Q760.98-2.85 759.53-5.86Z M800.20 0L793.28-29.80L797.38-29.80L801.17-10.94Q802.03-5.90 802.30-4.22L802.30-4.22L802.54-4.22Q802.66-4.80 803.14-7.29Q803.63-9.77 803.87-10.94L803.87-10.94L808.24-29.80L812.19-29.80L816.64-10.94Q817.03-9.26 817.97-4.22L817.97-4.22L818.13-4.22Q818.20-4.69 819.30-10.94L819.30-10.94L823.13-29.80L827.23-29.80L820.31 0L815.90 0L811.60-18.63Q811.45-19.34 811.17-20.64Q810.90-21.95 810.68-23.03Q810.47-24.10 810.31-25.08L810.31-25.08L810.16-25.08Q810.04-24.38 808.87-18.63L808.87-18.63L804.57 0L800.20 0Z M860.78 0L841.48 0L841.48-29.80L860.43-29.80L860.43-26.56L845.27-26.56L845.27-16.99L858.95-16.99L858.95-13.83L845.27-13.83L845.27-3.24L860.78-3.24L860.78 0Z M895.35 0L876.05 0L876.05-29.80L895-29.80L895-26.56L879.84-26.56L879.84-16.99L893.52-16.99L893.52-13.83L879.84-13.83L879.84-3.24L895.35-3.24L895.35 0Z M916.72-26.56L907.81-26.56L907.81-29.80L929.41-29.80L929.41-26.56L920.51-26.56L920.51 0L916.72 0L916.72-26.56Z M947.42 0L943.63 0L943.63-29.80L947.42-29.80L947.42-16.91L961.17-16.91L961.17-29.80L964.96-29.80L964.96 0L961.17 0L961.17-13.75L947.42-13.75L947.42 0Z M1001.95 0L982.66 0L982.66-29.80L1001.60-29.80L1001.60-26.56L986.45-26.56L986.45-16.99L1000.12-16.99L1000.12-13.83L986.45-13.83L986.45-3.24L1001.95-3.24L1001.95 0Z M1024.80-20.47L1021.60-11.21L1032.03-11.21L1028.87-20.47Q1028.63-21.17 1027.95-23.24Q1027.27-25.31 1026.95-26.25L1026.95-26.25L1026.72-26.25Q1026.45-25.39 1025.76-23.36Q1025.08-21.33 1024.80-20.47L1024.80-20.47ZM1017.70 0L1013.59 0L1024.61-29.80L1029.06-29.80L1040.04 0L1035.94 0L1033.13-8.16L1020.55-8.16L1017.70 0Z M1057.54-26.56L1057.54-15.78L1064.96-15.78Q1067.81-15.78 1069.34-17.25Q1070.86-18.71 1070.86-21.25L1070.86-21.25Q1070.86-23.63 1069.26-25.10Q1067.66-26.56 1064.73-26.56L1064.73-26.56L1057.54-26.56ZM1057.54 0L1053.75 0L1053.75-29.80L1065.51-29.80Q1069.96-29.80 1072.36-27.42Q1074.77-25.04 1074.77-21.52L1074.77-21.52Q1074.77-18.40 1073.26-16.45Q1071.76-14.49 1069.88-13.95L1069.88-13.95Q1071.45-13.05 1072.15-11.84Q1072.85-10.63 1073.32-8.36L1073.32-8.36Q1073.75-6.52 1074.00-5.53Q1074.26-4.53 1074.86-3.03Q1075.47-1.52 1076.37 0L1076.37 0L1072.11 0Q1070.51-2.85 1069.34-8.09L1069.34-8.09Q1068.83-10.23 1067.87-11.39Q1066.91-12.54 1064.80-12.54L1064.80-12.54L1057.54-12.54L1057.54 0Z M1095.82-26.56L1086.91-26.56L1086.91-29.80L1108.52-29.80L1108.52-26.56L1099.61-26.56L1099.61 0L1095.82 0L1095.82-26.56Z"/></g>
</svg>
</g><g opacity="1" transform="rotate(0 234.2548 156.4036)">
<svg width="57.1487" height="84" x="234.2548" y="156.4036" version="1.1" preserveAspectRatio="none" viewBox="13259.69140625 5395.4404296875 33478.9921875 49208.9921875">
  <g transform="matrix(-1 0 0 1 59998.375 0)" class="icon1"><defs></defs><g><path class="fil0" d="M44750 54476c-2643,-2420 -4749,-5013 -6470,-7713 -3760,4204 -7837,5291 -11739,4882 -3918,-410 -7630,-2332 -10663,-4100 -191,-110 -256,-355 -145,-545 28,-49 66,-90 108,-121 1838,-1488 3840,-2620 5866,-3428 3251,-1297 6567,-1760 9375,-1525 2195,184 4092,798 5427,1779 -165,-314 -326,-630 -483,-946 -493,-994 -946,-1998 -1367,-3007 -38,17 -80,29 -124,33 -7102,753 -11792,-1700 -15029,-5397 -3208,-3663 -4962,-8533 -6229,-12692 -64,-211 55,-433 266,-497 47,-14 94,-19 141,-16l0 -1c1917,127 3771,453 5533,936 1427,392 2792,886 4079,1462 -365,-725 -658,-1477 -891,-2247 -1138,-3768 -803,-7936 -346,-11419 28,-218 229,-372 447,-344 55,7 106,25 151,52 2086,1120 3905,2527 5433,4081 909,924 1715,1900 2415,2900 491,-2239 1560,-4204 2885,-5961 1459,-1934 3232,-3617 4878,-5141 161,-149 413,-139 563,22 34,36 59,77 77,121l1 -1c891,2199 1392,4450 1573,6628 291,3484 -235,6791 -1282,9411 -1065,2666 -2679,4635 -4537,5388 -345,140 -697,238 -1056,292 -118,521 -292,1003 -525,1438 -222,415 -496,786 -823,1108 -10,10 -21,20 -32,29 1234,3472 2605,6970 4395,10338 33,-635 128,-1284 275,-1943 -49,-45 -87,-102 -109,-169 -7,-22 -13,-45 -16,-68 -213,-211 -391,-455 -537,-726 -618,-1154 -610,-2804 -38,-4567 557,-1716 1651,-3556 3219,-5151 975,-991 2135,-1889 3465,-2604 45,-27 96,-45 151,-52 218,-28 418,125 447,344 291,2217 504,4873 -224,7281 -733,2427 -2403,4581 -5858,5760 -219,967 -325,1907 -278,2807 123,220 248,439 375,658 2244,3866 5121,7530 9082,10754 121,99 173,233 161,394 -8,117 -63,279 -153,449 -74,140 -181,303 -309,461 -314,386 -766,734 -1260,699 -105,-7 -198,-55 -265,-127zm-27393 -7749c3479,-580 6709,-976 9902,-1131 3356,-163 6666,-60 10173,375 -129,-273 -294,-531 -491,-774 -1123,-1385 -3277,-2251 -5924,-2474 -2698,-227 -5886,220 -9016,1468 -1587,633 -3159,1473 -4644,2536zm20105 -250c-3512,-441 -6823,-546 -10180,-383 -3290,160 -6629,579 -10250,1195 2812,1595 6139,3202 9590,3563 3592,376 7346,-603 10840,-4375zm5353 -19969c-466,926 -973,1878 -1487,2842 -1435,2691 -2918,5473 -3686,8094 2823,-1109 4219,-2972 4848,-5053 574,-1901 522,-3998 325,-5882zm-5659 10821c780,-2678 2281,-5492 3733,-8214 514,-963 1021,-1915 1489,-2847 -893,572 -1693,1232 -2393,1944 -1478,1502 -2507,3231 -3028,4838 -506,1560 -532,2987 -18,3945 64,119 136,231 218,335zm-22766 -15290c2906,3292 5797,5907 8940,8306 3125,2385 6497,4557 10378,6968 -856,-2337 -1568,-4694 -2221,-7035 -3637,-1248 -5997,-3191 -7494,-5487 -1546,-769 -3218,-1419 -4984,-1904 -1476,-405 -3021,-696 -4618,-847zm19602 16037c-4127,-2557 -7683,-4829 -10965,-7334 -2996,-2287 -5766,-4769 -8537,-7841 1206,3727 2866,7822 5616,10962 3064,3499 7509,5825 14247,5138 -123,-308 -243,-616 -361,-925zm4523 -31220c-570,1988 -1337,3807 -2111,5642 -1291,3061 -2600,6167 -3017,10157 358,1384 481,2701 358,3870 209,-47 416,-112 619,-194 1654,-670 3112,-2477 4096,-4941 1003,-2511 1506,-5690 1226,-9052 -150,-1802 -526,-3654 -1171,-5480zm-5482 14625c530,-3527 1729,-6370 2913,-9176 752,-1783 1497,-3551 2056,-5466 -1372,1292 -2781,2704 -3973,4284 -1407,1866 -2509,3968 -2879,6389 -2,16 -6,32 -10,48 815,1305 1450,2633 1894,3921zm-9713 -10560c1763,2940 3450,5838 4867,8768 1545,3196 2766,6426 3407,9782l15 5c20,-50 50,-97 91,-137 270,-266 496,-572 679,-914 842,-1572 807,-3894 -13,-6420 -835,-2574 -2481,-5340 -4845,-7743 -1216,-1237 -2621,-2376 -4202,-3342zm7726 18348c-646,-3201 -1825,-6296 -3308,-9363 -1447,-2993 -3186,-5965 -5001,-8986 -379,3199 -566,6871 434,10182 325,1077 778,2117 1393,3093 68,55 115,129 136,211 1315,1989 3328,3694 6346,4864zm4865 11369c264,592 541,1182 832,1768 1997,4026 4652,7891 8439,11385 157,-50 331,-214 475,-390 90,-111 166,-228 222,-333l3 -6c-3947,-3254 -6826,-6937 -9078,-10816 -309,-533 -606,-1069 -893,-1608z"></path></g></g>
</svg>
</g><g opacity="1" transform="rotate(0 107.559 266.4036)">
<svg width="310.5402" height="60" x="107.559" y="266.4036" version="1.1" preserveAspectRatio="none" viewBox="4.5703 -28.1641 145.8079 28.1641">
  <g transform="matrix(1 0 0 1 0 0)" class="icon1"><path id="id-D6z1nYkh5" d="M6.37 0L4.57 0L4.57-28.16L6.95-28.16L14.41-11.13Q14.92-9.92 15.78-7.77Q16.64-5.63 17.07-4.65L17.07-4.65L17.19-4.65Q17.54-5.51 18.44-7.70Q19.34-9.88 19.84-11.13L19.84-11.13L27.27-28.16L29.73-28.16L29.73 0L27.89 0L27.89-18.32Q27.89-20.82 28.13-25.82L28.13-25.82L28.01-25.82L26.41-22.11L17.97-2.42L16.29-2.42L7.85-22.07L6.21-25.86L6.13-25.86Q6.37-21.64 6.37-18.32L6.37-18.32L6.37 0Z M43.79 0L41.99 0L41.99-28.16L43.79-28.16L43.79 0Z M57.88 0L56.09 0L56.09-28.16L58.47-28.16L65.93-11.13Q66.44-9.92 67.30-7.77Q68.16-5.63 68.59-4.65L68.59-4.65L68.70-4.65Q69.06-5.51 69.95-7.70Q70.85-9.88 71.36-11.13L71.36-11.13L78.78-28.16L81.24-28.16L81.24 0L79.41 0L79.41-18.32Q79.41-20.82 79.64-25.82L79.64-25.82L79.53-25.82L77.92-22.11L69.49-2.42L67.81-2.42L59.37-22.07L57.73-25.86L57.65-25.86Q57.88-21.64 57.88-18.32L57.88-18.32L57.88 0Z M95.30 0L93.51 0L93.51-28.16L95.89-28.16L103.35-11.13Q103.86-9.92 104.72-7.77Q105.58-5.63 106.01-4.65L106.01-4.65L106.12-4.65Q106.48-5.51 107.37-7.70Q108.27-9.88 108.78-11.13L108.78-11.13L116.20-28.16L118.66-28.16L118.66 0L116.83 0L116.83-18.32Q116.83-20.82 117.06-25.82L117.06-25.82L116.94-25.82L115.34-22.11L106.90-2.42L105.23-2.42L96.79-22.07L95.15-25.86L95.07-25.86Q95.30-21.64 95.30-18.32L95.30-18.32L95.30 0Z M136.67-21.95L132.29-10.39L144.44-10.39L140.10-21.95Q138.85-25.35 138.46-26.48L138.46-26.48L138.31-26.48Q138.15-26.05 136.67-21.95L136.67-21.95ZM128.43 0L126.39 0L137.21-28.16L139.52-28.16L150.38 0L148.31 0L144.99-8.91L131.75-8.91L128.43 0Z"/></g>
</svg>
</g></svg></svg>